<svg width="772" height="647" viewBox="0 0 772 647" fill="none" xmlns="http://www.w3.org/2000/svg">
<path d="M-4 0H665.975C700.359 0 731.221 21.0962 743.705 53.134L766.613 111.922C785.115 159.405 748.548 210.19 697.648 207.7C660.968 205.906 633.726 241.211 644.764 276.237L660.516 326.219C692.675 428.269 584.302 517.604 490.264 466.562L396.429 415.629C370.973 401.812 340 420.241 340 449.205C340 490.98 292.482 514.994 258.849 490.216L240.881 476.979C207.672 452.513 161.379 480.009 166.973 520.876L171.55 554.309C180.519 619.829 111.623 668.039 53.141 637.166L33.1299 626.602C10.2913 614.545 -4 590.839 -4 565.014V0Z" fill="#D8EEF4"/>
</svg>
