<svg width="757" height="618" viewBox="0 0 757 618" fill="none" xmlns="http://www.w3.org/2000/svg">
<path d="M-19 -29H650.975C685.359 -29 716.221 -7.90377 728.705 24.134L751.613 82.9217C770.115 130.405 733.548 181.19 682.648 178.7C645.968 176.906 618.726 212.211 629.764 247.237L645.516 297.219C677.675 399.269 569.302 488.604 475.264 437.562L381.429 386.629C355.973 372.812 325 391.241 325 420.205C325 461.98 277.482 485.994 243.849 461.216L225.881 447.979C192.672 423.513 146.379 451.009 151.973 491.876L156.55 525.309C165.519 590.829 96.6228 639.039 38.141 608.166L18.1299 597.602C-4.70866 585.545 -19 561.839 -19 536.014V-29Z" fill="#4E2020"/>
</svg>
